<svg xmlns="http://www.w3.org/2000/svg" viewBox="0 0 150 150"><path d="M145.052 68.526L81.49 4.97a9.366 9.366 0 00-13.254 0l-13.2 13.2L71.78 34.91a11.139 11.139 0 0111.455 2.67 11.166 11.166 0 012.648 11.524l16.133 16.137c3.902-1.346 8.408-.476 11.527 2.647a11.147 11.147 0 013.268 7.888 11.166 11.166 0 01-11.16 11.16c-6.12 0-11.156-5.036-11.156-11.156 0-1.46.286-2.9.843-4.247l-15.045-15.05v39.6a11.315 11.315 0 012.951 2.108 11.166 11.166 0 013.269 7.888c0 2.96-1.179 5.797-3.269 7.887-4.36 4.36-11.423 4.36-15.774 0a11.15 11.15 0 01-3.269-7.892c0-4.515 2.743-8.608 6.922-10.321V55.789a10.965 10.965 0 01-3.649-2.434c-3.3-3.296-4.093-8.142-2.402-12.194L48.549 24.65 4.969 68.23a9.377 9.377 0 000 13.264l63.561 63.557c3.636 3.636 9.624 3.636 13.26 0l63.262-63.262c3.635-3.64 3.635-9.628 0-13.264" fill="#de4c36"/></svg>