<svg xmlns="http://www.w3.org/2000/svg" version="1.1" id="Capa_1" x="0" y="0" viewBox="0 0 50 50" xml:space="preserve"><style>.st3{fill:#ebebeb}</style><g id="XMLID_3090_"><path id="XMLID_3149_" fill="#e34e26" d="M9.3 42.4L5.8 3.2h38.4l-3.5 39.2L25 46.8z"/><path id="XMLID_3148_" fill="#ef662a" d="M25 6.4v37.1l12.7-3.6 3-33.5z"/><g id="XMLID_3091_"><path id="XMLID_3146_" fill="#fff" d="M12.9 11.2l1.3 14.6h16.7l-.5 6.2-5.4 1.5-5.4-1.5-.3-4h-4.9l.7 7.7 9.9 2.8 9.9-2.8L36.2 21H18.6l-.4-5h18.4l.5-4.8z"/><g id="XMLID_3092_"><path id="XMLID_3145_" class="st3" d="M25 11.2H12.9l1.3 14.6H25V21h-6.4l-.4-5H25z"/><path id="XMLID_3103_" class="st3" d="M25 33.5L19.6 32l-.3-4h-4.9l.7 7.7 9.9 2.8z"/></g></g></g></svg>