<svg viewBox="0 0 324 70" preserveAspectRatio="xMidYMid meet" class="css-1uxicuq" id="edgdcdhg"><defs id="SvgjsDefs1001"><linearGradient id="SvgjsLinearGradient1013"><stop id="SvgjsStop1014" stop-color="#ee2a7b" offset="0"/><stop id="SvgjsStop1015" stop-color="#ff7db8" offset="1"/></linearGradient><linearGradient id="SvgjsLinearGradient1016"><stop id="SvgjsStop1017" stop-color="#ee2a7b" offset="0"/><stop id="SvgjsStop1018" stop-color="#ff7db8" offset="1"/></linearGradient><linearGradient id="SvgjsLinearGradient1019"><stop id="SvgjsStop1020" stop-color="#ee2a7b" offset="0"/><stop id="SvgjsStop1021" stop-color="#ff7db8" offset="1"/></linearGradient></defs><g id="SvgjsG1007" featurekey="symbolFeature-0" transform="matrix(0.1833444072206408,0,0,0.1833444072206408,-2.936260569734017,-11.46818064191245)" fill="url(#SvgjsLinearGradient1013)"><g xmlns="http://www.w3.org/2000/svg"><g><path d="M56.232,255.478l128.059-77.912c1.798-0.855,3.031-2.739,3.031-4.901v-37.66c-0.016-0.949-0.249-1.93-0.766-2.802    c-1.483-2.552-4.717-3.377-7.203-1.851L18.842,230.913c-1.671,0.903-2.827,2.716-2.827,4.824v38.965    c0.03,1.83,0.907,3.62,2.53,4.644l160.449,101.985c0.861,0.663,1.922,1.023,3.078,1.023c2.907,0,5.25-2.438,5.25-5.42v-37.616    c-0.032-1.861-0.937-3.676-2.594-4.668L56.232,255.478z M176.807,169.567L48.498,247.649l-1.031,0.825l-1.28,1.285    c-0.407,0.436-0.718,0.917-0.985,1.407c-1.061,2.103-1.296,4.444-0.764,6.545l0.062,0.273c0.578,2.162,1.984,4.112,3.969,5.295    l128.339,79.093v24.858L26.53,271.697v-32.941l150.277-94.134V169.567z M196.807,415.278l87.17-321.061    c0.469-2.49,2.607-4.396,5.172-4.396h23.061l1.404,0.226c2.797,0.793,4.406,3.796,3.628,6.676l-87.186,321.048    c-0.468,2.534-2.608,4.404-5.172,4.404h-23.029l-1.406-0.191C197.667,421.161,196.042,418.18,196.807,415.278z M293.133,100.706    l-84.358,310.607h12.156l84.356-310.607H293.133z M455.767,255.478l-128.072-77.912c-1.766-0.855-3.018-2.739-3.018-4.901v-37.66    c0.032-0.949,0.265-1.93,0.782-2.802c1.469-2.552,4.719-3.377,7.203-1.851l160.511,100.561c1.657,0.903,2.813,2.716,2.813,4.824    v38.965c-0.017,1.83-0.907,3.62-2.517,4.644L332.99,381.331c-0.846,0.663-1.922,1.023-3.049,1.023c-2.89,0-5.265-2.438-5.265-5.42    v-37.616c0.048-1.861,0.971-3.676,2.596-4.668L455.767,255.478z M335.193,169.567l128.322,78.082l1.047,0.825l1.236,1.285    c0.438,0.436,0.782,0.917,0.982,1.407c1.111,2.103,1.328,4.444,0.814,6.545l-0.08,0.273c-0.609,2.162-1.966,4.112-3.984,5.295    l-128.338,79.093v24.858l150.291-95.533v-32.941l-150.291-94.134V169.567z"/></g></g></g><g id="SvgjsG1008" featurekey="textGroupContainer" transform="matrix(1,0,0,1,323,0)" fill="url(#SvgjsLinearGradient1016)"><rect xmlns="http://www.w3.org/2000/svg" y="0" height="1" width="1" opacity="0"/><rect xmlns="http://www.w3.org/2000/svg" y="0" x="-215" width="3" height="70"/></g><g id="SvgjsG1009" featurekey="nameFeature-0" transform="matrix(0.9485416203143038,0,0,0.9485416203143038,118.44107195797768,16.814131199453477)" fill="url(#SvgjsLinearGradient1019)"><path d="M31.094 31.25 c-0.57289 1.5625 -1.4062 2.9166 -2.4999 4.0625 c-1.0416 1.0416 -2.3438 1.8489 -3.9063 2.4218 s-3.2291 0.85938 -5 0.85938 c-2.7084 0 -5.0521 -0.57289 -7.0313 -1.7188 c-1.875 -1.1459 -3.4375 -2.5521 -4.6875 -4.2188 l4.2969 -4.375 c0.83336 1.1979 1.9271 2.2656 3.2813 3.2031 c1.1979 0.72914 2.552 1.0938 4.0624 1.0938 c1.7188 0 3.125 -0.57289 4.2188 -1.7188 c1.0416 -1.1979 1.5625 -3.0208 1.5625 -5.4687 l0 -23.984 l6.6406 0 l0 24.219 c0 2.1875 -0.3125 4.0625 -0.9375 5.625 z M73.438 8.75 c-0.67711 -1.4584 -1.6147 -2.7605 -2.8126 -3.9063 c-1.25 -1.0938 -2.7344 -1.9531 -4.4531 -2.5781 c-1.875 -0.57289 -3.8541 -0.85938 -5.9375 -0.85938 l-14.609 0 l0 5.8594 l14.063 0 c2.3438 0 4.2969 0.57289 5.8594 1.7188 c1.4584 1.0938 2.1875 2.7604 2.1875 5 c0 2.0313 -0.70313 3.6719 -2.1094 4.9219 c-1.5104 1.1979 -3.4895 1.7969 -5.9374 1.7969 l-14.063 0 l0 17.891 l6.4844 0 l0 -11.953 l7.3438 0 c1.9271 0 3.8802 -0.28648 5.8594 -0.85938 c1.8229 -0.57289 3.3854 -1.3802 4.6875 -2.4218 c1.3541 -1.0416 2.4219 -2.3698 3.2031 -3.9844 c0.78125 -1.5625 1.1719 -3.3854 1.1719 -5.4688 c0 -1.9791 -0.3125 -3.6979 -0.9375 -5.1563 z M112.813 27.344 c-0.98961 2.3959 -2.3438 4.375 -4.0625 5.9375 c-1.7709 1.6666 -3.8542 2.9688 -6.2501 3.9063 s-5.0781 1.4063 -8.0469 1.4063 l-8.6719 0 l0 -5.9375 l8.5938 0 c1.9791 0 3.776 -0.3125 5.3906 -0.9375 c1.5625 -0.625 2.9166 -1.5104 4.0625 -2.6563 s2.0313 -2.5 2.6563 -4.0625 s0.9375 -3.2813 0.9375 -5.1563 c0 -1.8229 -0.3125 -3.5156 -0.9375 -5.0781 c-0.625 -1.6146 -1.5104 -2.9427 -2.6563 -3.9844 c-1.0416 -1.0938 -2.3958 -1.9791 -4.0624 -2.6563 c-1.6666 -0.625 -3.4635 -0.9375 -5.3906 -0.9375 l-8.5938 0 l0 -5.9375 l8.6719 0 c2.7604 0 5.4166 0.49477 7.9688 1.4844 c2.3959 0.88539 4.5052 2.2135 6.3281 3.9844 c1.7709 1.6146 3.125 3.5938 4.0625 5.9375 c0.98961 2.3959 1.4844 4.8438 1.4844 7.3438 c0 2.7084 -0.49477 5.1563 -1.4844 7.3438 z M126.0938 1.4059999999999988 l27.813 0 l0 5.9375 l-27.813 0 l0 -5.9375 z M126.0938 32.6562 l27.734 0 l0 5.9375 l-27.734 0 l0 -5.9375 z M126.0938 16.875 l25.078 0 l0 5.8594 l-25.078 0 l0 -5.8594 z M168.9844 1.328000000000003 l-7.0313 0 l13.594 37.266 l7.1094 0 l-7.8906 -22.344 z M197.734 1.328000000000003 l-6.875 0 l-8.125 19.844 l3.3594 8.9063 z"/></g></svg>