<svg width="64" height="64" viewBox="0 0 64 64" fill="none" xmlns="http://www.w3.org/2000/svg">
<path d="M56.2001 15.2797C56.0615 15.1394 55.8964 15.028 55.7145 14.952C55.5325 14.876 55.3373 14.8368 55.1401 14.8368C54.9429 14.8368 54.7476 14.876 54.5657 14.952C54.3837 15.028 54.2186 15.1394 54.0801 15.2797L46.8001 22.5597L41.3301 17.0997L48.6201 9.80968C48.9012 9.52722 49.0586 9.14466 49.0577 8.74614C49.0567 8.34763 48.8975 7.96581 48.6151 7.68468C48.3326 7.40355 47.95 7.24614 47.5515 7.24707C47.153 7.24801 46.7712 7.40722 46.4901 7.68968L39.2101 14.9997L38.0001 13.7597C37.8615 13.6194 37.6964 13.508 37.5144 13.432C37.3325 13.356 37.1373 13.3168 36.9401 13.3168C36.7429 13.3168 36.5476 13.356 36.3657 13.432C36.1837 13.508 36.0186 13.6194 35.8801 13.7597L33.5901 15.9997C33.4521 16.1393 33.3431 16.3049 33.2693 16.4868C33.1955 16.6687 33.1584 16.8634 33.1601 17.0597C33.1588 17.4557 33.3133 17.8364 33.5901 18.1197L34.9101 19.4297L31.6501 22.6897L16.2701 23.9997H16.0901H15.9801L15.8201 24.0697L15.7101 24.1197C15.6612 24.1461 15.6144 24.1762 15.5701 24.2097L15.4701 24.2797L15.3501 24.3897L15.2701 24.4897L15.1801 24.6097L15.1101 24.7297L15.0501 24.8597C15.0295 24.9048 15.0127 24.9517 15.0001 24.9997C15.0001 24.9997 15.0001 24.9997 15.0001 24.9997L7.40005 54.6597C7.33484 54.9121 7.3375 55.1774 7.40774 55.4285C7.47798 55.6796 7.61332 55.9077 7.80005 56.0897C7.91199 56.2059 8.04414 56.3008 8.19005 56.3697C8.46535 56.6149 8.82134 56.7502 9.19005 56.7497H40.3001C40.6979 56.7497 41.0794 56.5916 41.3607 56.3103C41.642 56.029 41.8001 55.6475 41.8001 55.2497C41.8001 54.8519 41.642 54.4703 41.3607 54.189C41.0794 53.9077 40.6979 53.7497 40.3001 53.7497H20.0001L38.8101 48.9997L39.0001 48.8997H39.0801C39.2277 48.8418 39.3634 48.7571 39.4801 48.6497C39.4801 48.6497 39.4801 48.6497 39.4801 48.6497C39.596 48.539 39.6939 48.4108 39.7701 48.2697V48.2097C39.8423 48.0589 39.8864 47.8963 39.9001 47.7297C39.9001 47.7297 39.9001 47.7297 39.9001 47.7297L41.1201 32.3497L44.4201 28.9997L45.7401 30.3197C45.8789 30.4594 46.044 30.5703 46.226 30.6458C46.4079 30.7214 46.6031 30.7601 46.8001 30.7597C47.1971 30.7561 47.5772 30.5983 47.8601 30.3197L50.1301 27.9997C50.411 27.7184 50.5687 27.3372 50.5687 26.9397C50.5687 26.5422 50.411 26.1609 50.1301 25.8797L48.9201 24.6597L56.2001 17.3997C56.3403 17.2611 56.4517 17.096 56.5277 16.9141C56.6038 16.7321 56.6429 16.5369 56.6429 16.3397C56.6429 16.1425 56.6038 15.9472 56.5277 15.7653C56.4517 15.5833 56.3403 15.4183 56.2001 15.2797V15.2797ZM38.6501 30.5097C38.523 30.6435 38.4213 30.7994 38.35 30.9697V31.0297C38.3015 31.1622 38.268 31.2997 38.2501 31.4397L37.0001 46.3097L13.7801 52.2297L24.7801 41.2297C25.8018 41.8071 26.9853 42.0318 28.1475 41.8691C29.3098 41.7065 30.3861 41.1654 31.2101 40.3297C32.1658 39.302 32.6857 37.9436 32.6602 36.5403C32.6348 35.1371 32.066 33.7985 31.0736 32.8061C30.0813 31.8137 28.7426 31.2449 27.3394 31.2195C25.9362 31.194 24.5778 31.7139 23.5501 32.6697V32.6697C22.5516 33.6818 21.9943 35.048 22.0001 36.4697C22.0084 37.3837 22.2456 38.281 22.6901 39.0797L11.6901 50.0797L17.6101 26.8297L32.4701 25.6497C32.6111 25.6377 32.7494 25.604 32.8801 25.5497H32.9501C33.11 25.4802 33.2557 25.3819 33.3801 25.2597V25.2597L36.6501 21.9997L41.9201 27.2697L38.6501 30.5097ZM25.7101 38.1797C25.483 37.9569 25.3031 37.6907 25.1812 37.3969C25.0592 37.1031 24.9976 36.7878 25.0001 36.4697C24.9998 36.1519 25.0624 35.8372 25.1843 35.5438C25.3061 35.2503 25.4848 34.9838 25.7101 34.7597V34.7597C26.1663 34.3114 26.7804 34.0602 27.4201 34.0602C28.0597 34.0602 28.6738 34.3114 29.1301 34.7597C29.5813 35.2149 29.8362 35.8287 29.8401 36.4697C29.8403 36.7874 29.7777 37.1021 29.6558 37.3956C29.534 37.6891 29.3553 37.9555 29.1301 38.1797C28.6713 38.6232 28.0582 38.8712 27.4201 38.8712C26.7819 38.8712 26.1688 38.6232 25.7101 38.1797V38.1797Z" fill="#ffffff" id="id_101"></path>
<path d="M54.2499 53.75H47.6699C47.2721 53.75 46.8906 53.908 46.6093 54.1893C46.328 54.4706 46.1699 54.8522 46.1699 55.25C46.1699 55.6478 46.328 56.0294 46.6093 56.3107C46.8906 56.592 47.2721 56.75 47.6699 56.75H54.2499C54.6477 56.75 55.0293 56.592 55.3106 56.3107C55.5919 56.0294 55.7499 55.6478 55.7499 55.25C55.7499 54.8522 55.5919 54.4706 55.3106 54.1893C55.0293 53.908 54.6477 53.75 54.2499 53.75V53.75Z" fill="#ffffff" id="id_102"></path>
</svg>