<svg xmlns="http://www.w3.org/2000/svg" version="1.1" id="Capa_1" x="0" y="0" viewBox="0 0 50 50" xml:space="preserve"><style>.st7{fill:#1d1d1b}</style><g id="XMLID_3150_"><path id="XMLID_8916_" fill="#2659a5" d="M40.8 42.6L25 46.8 9.2 42.6 5.6 3.2h38.8z"/><path id="XMLID_7787_" fill="#439bd6" d="M25 6.4v37L37.8 40l2.9-33.6z"/><g id="XMLID_3151_"><path id="XMLID_7786_" fill="#fff" d="M25 16.2l-11.3 4.7.4 4.7L25 20.9 36.6 16l.5-4.8z"/><linearGradient id="XMLID_2_" gradientUnits="userSpaceOnUse" x1="19.348" y1="25.57" x2="19.348" y2="16.225"><stop offset=".387" stop-color="#d9d9d9" stop-opacity="0"/><stop offset="1" stop-color="#d9d9d9"/></linearGradient><path id="XMLID_7782_" fill="url(#XMLID_2_)" d="M13.7 20.9l.4 4.7L25 20.9v-4.7z"/><linearGradient id="XMLID_3_" gradientUnits="userSpaceOnUse" x1="31.024" y1="20.909" x2="31.024" y2="11.195"><stop offset=".387" stop-color="#d9d9d9" stop-opacity="0"/><stop offset="1" stop-color="#d9d9d9"/></linearGradient><path id="XMLID_7211_" fill="url(#XMLID_3_)" d="M37.1 11.2l-12.1 5v4.7L36.6 16z"/><linearGradient id="XMLID_4_" gradientUnits="userSpaceOnUse" x1="13.728" y1="29.738" x2="36.172" y2="29.738"><stop offset="0" stop-color="#ededec"/><stop offset="1" stop-color="#fff"/></linearGradient><path id="XMLID_7210_" fill="url(#XMLID_4_)" d="M13.7 20.9l.4 4.7h16.7l-.3 6.2-5.5 1.6-5.3-1.4-.4-3.8h-4.9l.7 7.4 9.9 3 9.9-2.9 1.3-14.8z"/><g id="XMLID_3154_" opacity=".05"><path id="XMLID_7205_" class="st7" d="M25 20.9H13.7l.4 4.7H25z"/><path id="XMLID_3155_" class="st7" d="M25 33.4h-.1L19.6 32l-.3-3.8h-4.9l.6 7.4 10 3z"/></g><linearGradient id="XMLID_5_" gradientUnits="userSpaceOnUse" x1="12.695" y1="13.573" x2="37.063" y2="13.573"><stop offset="0" stop-color="#ededec"/><stop offset="1" stop-color="#fff"/></linearGradient><path id="XMLID_3153_" fill="url(#XMLID_5_)" d="M12.7 11.2h24.4l-.5 4.8H13.3z"/><path id="XMLID_3152_" opacity=".05" fill="#1d1d1b" d="M25 11.2H12.7l.6 4.8H25z"/></g></g></svg>