<svg xmlns:serif="http://www.serif.com/" xmlns="http://www.w3.org/2000/svg" xmlns:xlink="http://www.w3.org/1999/xlink" version="1.1" id="Capa_1" x="0px" y="0px" viewBox="0 0 150 150" style="enable-background:new 0 0 150 150;" xml:space="preserve">
<style type="text/css">
	.st0{fill:#DE4C36;}
</style>
<g>
	<g transform="matrix(0.0453299,0,0,0.0453299,18.4997,50.9883)">
		<path class="st0" d="M2791.8,386.9L1389.6-1015.2c-38.8-38.8-91.4-60.6-146.2-60.6c-54.8,0-107.5,21.8-146.2,60.6L806-724    l369.4,369.3c88.4-30.1,186.7-7.2,252.7,58.9c66.4,66.5,89.1,165.5,58.4,254.2l355.9,356c86.1-29.7,185.5-10.5,254.3,58.4    c46.2,46.1,72.1,108.8,72.1,174c0,65.2-26,127.9-72.1,174c-46.1,46.2-108.8,72.2-174.1,72.2c-135,0-246.1-111.1-246.1-246.1    c0-32.2,6.3-64,18.6-93.7l-331.9-332l0,873.6c24.1,11.9,46,27.6,65.1,46.5c46.1,46.1,72.1,108.8,72.1,174    c0,65.3-26,127.9-72.1,174c-96.2,96.2-252,96.2-348,0c-46.2-46.1-72.1-108.8-72.1-174.1c0-99.6,60.5-189.9,152.7-227.7V105.9    c-30.2-12.3-57.6-30.6-80.5-53.7c-72.8-72.7-90.3-179.6-53-269L662.9-581l-961.4,961.4c-38.8,38.8-60.6,91.4-60.6,146.3    c0,54.8,21.8,107.5,60.6,146.3l1402.2,1402.1c80.2,80.2,212.3,80.2,292.5,0L2791.8,679.5C2872,599.2,2872,467.1,2791.8,386.9"/>
	</g>
</g>
</svg>