<svg xmlns="http://www.w3.org/2000/svg" xmlns:xlink="http://www.w3.org/1999/xlink" version="1.1" id="Capa_1" x="0px" y="0px" viewBox="0 0 50 50" style="enable-background:new 0 0 50 50;" xml:space="preserve">
<style type="text/css">
	.st0{fill:#CF649A;}
</style>
<path class="st0" d="M42.7,27.7c-1.7,0-3.2,0.4-4.4,1c-0.5-0.9-0.9-1.7-1-2.3c-0.1-0.7-0.2-1.1-0.1-1.9c0.1-0.8,0.6-2,0.6-2.1  c0-0.1-0.1-0.5-1.1-0.5c-1,0-1.8,0.2-1.9,0.5c-0.1,0.3-0.3,0.9-0.4,1.5c-0.2,0.9-2,4.1-3,5.8c-0.3-0.7-0.6-1.2-0.7-1.7  c-0.1-0.7-0.2-1.1-0.1-1.9c0.1-0.8,0.6-2,0.6-2.1c0-0.1-0.1-0.5-1.1-0.5c-1,0-1.8,0.2-1.9,0.5c-0.1,0.3-0.2,0.9-0.4,1.5  c-0.2,0.6-2.6,5.9-3.2,7.3c-0.3,0.7-0.6,1.3-0.8,1.7c-0.2,0.4,0,0,0,0.1c-0.2,0.3-0.3,0.5-0.3,0.5v0c-0.1,0.2-0.3,0.5-0.3,0.5  c0,0-0.1-0.6,0-1.5c0.4-1.9,1.2-4.7,1.2-4.8c0,0,0.2-0.6-0.6-0.8c-0.7-0.3-0.9,0.2-1,0.2c-0.1,0-0.1,0.2-0.1,0.2s0.8-3.3-1.5-3.3  c-1.4,0-3.4,1.5-4.3,3c-0.6,0.3-1.9,1-3.3,1.8c-0.5,0.3-1.1,0.6-1.6,0.9l-0.1-0.1c-2.7-2.9-7.8-5-7.6-8.9c0.1-1.4,0.6-5.2,9.7-9.8  c7.5-3.7,13.5-2.7,14.6-0.4c1.5,3.3-3.2,9.3-11,10.2c-3,0.3-4.5-0.8-4.9-1.2c-0.4-0.5-0.5-0.5-0.6-0.4c-0.2,0.1-0.1,0.5,0,0.8  c0.2,0.6,1.2,1.7,2.8,2.2c1.4,0.5,4.9,0.7,9.1-0.9c4.7-1.8,8.4-6.9,7.3-11.2c-1.1-4.3-8.3-5.7-15.1-3.3c-4,1.4-8.4,3.7-11.6,6.6  c-3.7,3.5-4.3,6.5-4.1,7.8c0.9,4.5,7.1,7.5,9.6,9.6C10,31.9,9.9,32,9.7,32c-1.2,0.6-6,3.1-7.2,5.7c-1.3,3,0.2,5.1,1.2,5.4  c3.2,0.9,6.5-0.7,8.3-3.3c1.8-2.6,1.6-6.1,0.7-7.6l0-0.1l1-0.6c0.6-0.4,1.3-0.7,1.8-1c-0.3,0.8-0.5,1.8-0.6,3.3  c-0.1,1.7,0.6,3.9,1.5,4.7c0.4,0.4,0.9,0.4,1.2,0.4c1.1,0,1.5-0.9,2.1-1.9c0.7-1.3,1.2-2.8,1.2-2.8s-0.7,4,1.2,4  c0.7,0,1.4-0.9,1.8-1.4v0c0,0,0,0,0.1-0.1c0-0.1,0.1-0.1,0.1-0.2v0c0.3-0.5,0.9-1.6,1.9-3.5c1.2-2.4,2.4-5.5,2.4-5.5s0.1,0.7,0.5,2  c0.2,0.7,0.7,1.5,1,2.3c-0.3,0.4-0.5,0.6-0.5,0.6l0,0c-0.2,0.3-0.5,0.6-0.8,1c-1,1.2-2.1,2.5-2.3,2.9c-0.2,0.5-0.1,0.8,0.2,1.1  c0.3,0.2,0.7,0.2,1.2,0.2c0.9-0.1,1.5-0.3,1.8-0.4c0.5-0.2,1-0.4,1.6-0.8c1-0.7,1.5-1.7,1.5-3.1c0-0.7-0.3-1.5-0.6-2.2  c0.1-0.1,0.2-0.2,0.3-0.4c1.5-2.2,2.7-4.7,2.7-4.7s0.1,0.7,0.5,2c0.2,0.6,0.5,1.3,0.9,2c-1.4,1.2-2.3,2.5-2.6,3.4  c-0.6,1.6-0.1,2.4,0.7,2.5c0.4,0.1,0.9-0.1,1.3-0.3c0.5-0.2,1.1-0.4,1.7-0.9c1-0.7,1.9-1.7,1.8-3c0-0.6-0.2-1.2-0.4-1.8  c1.2-0.5,2.8-0.8,4.8-0.5c4.3,0.5,5.1,3.2,4.9,4.3c-0.2,1.1-1.1,1.7-1.4,1.9c-0.3,0.2-0.4,0.2-0.4,0.4c0,0.2,0.2,0.2,0.4,0.2  c0.4-0.1,2.2-0.9,2.3-3C49.7,30.6,47.2,27.7,42.7,27.7L42.7,27.7z M9.8,38.8c-1.4,1.5-3.4,2.1-4.2,1.6C4.7,39.9,5,37.7,6.7,36  c1.1-1,2.4-1.9,3.3-2.5c0.2-0.1,0.5-0.3,0.9-0.5c0.1,0,0.1-0.1,0.1-0.1c0.1,0,0.1-0.1,0.2-0.1C11.9,35.2,11.3,37.2,9.8,38.8  L9.8,38.8z M20.1,31.8c-0.5,1.2-1.5,4.3-2.1,4.1c-0.5-0.1-0.9-2.5-0.1-4.8c0.4-1.2,1.2-2.5,1.7-3.1c0.8-0.9,1.6-1.2,1.8-0.8  C21.6,27.7,20.4,31.1,20.1,31.8z M28.6,35.9c-0.2,0.1-0.4,0.2-0.5,0.1c-0.1,0,0.1-0.2,0.1-0.2s1.1-1.1,1.5-1.7  c0.2-0.3,0.5-0.7,0.8-1.1v0.1C30.5,34.6,29.2,35.5,28.6,35.9L28.6,35.9z M35.2,34.4c-0.2-0.1-0.1-0.5,0.4-1.6  c0.2-0.4,0.7-1.2,1.5-1.9c0.1,0.3,0.2,0.6,0.1,0.8C37.2,33.5,35.9,34.1,35.2,34.4z"/>
</svg>